# xmcd
#
# Track frame offsets:
# 188
# 13430
# 34550
# 57538
# 73073
# 103400
# 133250
# 155543
# 175585
# 190773
#
# Disc length: 2843 seconds
#
#
# Revision: 4
# Processed by: cddbd v1.5.1PL0 Copyright (c) Steve Scherf et al.
# Submitted via: FreeRIP 2.90 
#
DISCID=910b190a
DTITLE=John Lee Hooker - Mr. Lucky
DYEAR=1991
DGENRE=Blues
TTITLE0=I Want to Hug You
TTITLE1=Mr. Lucky
TTITLE2=Back Stabbers
TTITLE3=This Is Hip
TTITLE4=I Cover the Waterfront
TTITLE5=Highway 13
TTITLE6=Stripped Me Naked
TTITLE7=Susie
TTITLE8=Crawlin' King Snake
TTITLE9=Father Was a Jockey
EXTD=YEAR: 1991
EXTT0=
EXTT1=
EXTT2=
EXTT3=
EXTT4=
EXTT5=
EXTT6=
EXTT7=
EXTT8=
EXTT9=
PLAYORDER=
